<svg xmlns="http://www.w3.org/2000/svg" viewBox="0 0 32 32">
  <rect width="32" height="32" rx="4" fill="#0c0b09"/>
  <svg x="4.5" y="3.2" width="23" height="25.6" viewBox="0 0 848 941">
    <g transform="translate(0.000000,941.000000) scale(0.100000,-0.100000)"
fill="#f4a82a" stroke="none">
<path d="M3979 9166 c-2 -2 -44 -6 -94 -9 -126 -8 -296 -27 -307 -34 -6 -3
-49 -11 -96 -19 -116 -17 -141 -23 -180 -40 -17 -8 -56 -18 -85 -21 -28 -4
-75 -16 -103 -29 -28 -12 -75 -27 -105 -32 -30 -6 -77 -22 -106 -36 -28 -14
-58 -26 -66 -26 -9 0 -19 -4 -22 -10 -3 -5 -16 -10 -28 -10 -13 0 -31 -6 -42
-14 -11 -7 -31 -16 -45 -20 -14 -4 -63 -26 -110 -48 -109 -52 -103 -48 -185
-93 -38 -21 -106 -57 -151 -80 -44 -22 -87 -47 -95 -54 -23 -20 -111 -78 -146
-96 -18 -10 -33 -21 -33 -26 0 -5 -5 -9 -11 -9 -10 0 -32 -16 -87 -61 -7 -6
-24 -16 -38 -24 -13 -7 -45 -31 -70 -54 -25 -22 -51 -41 -58 -41 -7 0 -19 -11
-26 -25 -7 -13 -20 -27 -29 -30 -14 -4 -81 -65 -231 -208 -25 -24 -67 -69 -95
-101 -27 -32 -66 -74 -87 -94 -34 -35 -125 -148 -178 -222 -30 -44 -33 -47
-68 -90 -16 -19 -39 -52 -51 -72 -12 -21 -26 -38 -31 -38 -4 0 -10 -10 -14
-23 -3 -12 -14 -31 -24 -42 -10 -11 -21 -27 -24 -36 -3 -9 -27 -48 -52 -88
-25 -39 -46 -77 -46 -84 0 -7 -9 -20 -20 -30 -11 -9 -20 -23 -20 -31 0 -9 -11
-32 -25 -52 -14 -20 -25 -43 -25 -51 0 -14 -45 -100 -61 -117 -5 -6 -9 -16 -9
-24 0 -8 -7 -28 -15 -45 -60 -132 -135 -339 -170 -472 -10 -38 -27 -82 -37
-97 -10 -14 -18 -41 -18 -60 0 -18 -7 -64 -15 -103 -9 -38 -18 -86 -21 -105
-2 -19 -9 -55 -14 -80 -6 -25 -17 -97 -25 -160 -8 -63 -20 -142 -26 -175 -6
-33 -13 -154 -16 -269 -4 -173 -1 -240 16 -380 12 -94 26 -187 31 -206 5 -19
14 -78 20 -130 6 -52 18 -117 25 -145 8 -27 17 -81 21 -120 3 -38 15 -88 26
-110 11 -22 24 -67 29 -100 6 -33 14 -64 20 -69 5 -6 9 -18 9 -28 0 -10 6 -29
14 -41 8 -12 17 -44 21 -72 3 -27 13 -60 21 -73 8 -12 28 -58 44 -101 16 -44
33 -88 38 -98 50 -98 152 -321 152 -331 0 -5 9 -17 21 -28 11 -10 29 -37 40
-59 18 -37 42 -78 94 -164 11 -18 32 -49 47 -69 15 -21 39 -53 53 -72 14 -19
44 -60 68 -90 24 -30 48 -63 53 -72 5 -9 28 -36 50 -60 23 -24 44 -54 48 -66
4 -11 15 -24 24 -27 9 -3 28 -21 42 -40 14 -18 35 -39 47 -46 13 -7 23 -16 23
-20 0 -15 248 -252 325 -311 6 -5 56 -44 112 -88 57 -44 105 -80 108 -80 3 0
16 -9 28 -21 12 -11 43 -32 69 -45 25 -13 58 -34 73 -48 14 -13 39 -29 55 -36
17 -7 30 -16 30 -21 0 -5 6 -9 14 -9 8 0 34 -15 58 -33 24 -18 57 -40 73 -49
17 -9 51 -27 77 -41 25 -13 59 -33 75 -44 15 -11 49 -28 76 -38 84 -32 80 -40
-107 -226 -91 -90 -171 -170 -178 -177 -7 -7 -50 -49 -95 -95 -45 -45 -120
-118 -168 -162 -47 -44 -92 -91 -99 -105 -7 -14 -21 -39 -30 -56 -20 -40 -34
-154 -17 -154 6 0 11 -9 11 -19 0 -26 15 -34 70 -41 37 -4 45 -9 50 -30 6 -24
-15 -129 -40 -206 -17 -50 -8 -67 27 -52 15 7 41 25 57 39 15 15 41 33 57 39
16 7 29 16 29 21 0 5 5 9 10 9 5 0 19 8 29 17 103 95 268 252 280 267 17 21
50 53 73 72 7 6 43 42 80 80 126 131 305 304 314 304 5 0 54 45 108 100 55 55
106 100 113 100 7 0 13 4 13 9 0 21 70 21 127 1 32 -11 100 -27 152 -36 52 -8
100 -18 105 -22 12 -7 57 -14 246 -36 63 -8 133 -19 155 -24 51 -14 454 -22
600 -12 61 4 139 12 175 18 36 6 90 13 120 16 30 3 87 12 125 20 191 40 265
57 315 71 50 14 138 37 199 51 14 3 45 13 70 24 25 10 73 28 106 40 156 57
214 79 250 99 22 11 45 21 51 21 16 0 121 49 166 77 21 13 43 23 51 23 7 0 65
31 130 70 64 38 119 70 122 70 10 0 111 69 124 84 7 9 19 16 26 16 7 0 24 9
37 19 69 58 139 111 146 111 5 0 19 11 32 25 13 14 29 25 36 25 7 0 14 3 16 8
2 4 37 36 78 72 98 84 420 410 420 425 0 6 21 34 46 61 25 27 52 61 59 76 8
14 25 35 37 45 27 22 48 56 48 78 0 8 6 15 13 15 8 0 20 12 28 28 15 30 51 84
60 92 4 3 16 23 27 45 11 22 29 49 39 60 10 11 25 36 33 55 8 19 31 64 53 99
21 35 43 75 48 89 5 13 18 37 29 52 11 16 20 33 20 39 0 6 14 32 30 58 17 26
30 53 30 61 0 8 10 35 23 61 13 25 27 58 31 74 3 15 20 49 36 76 17 26 30 55
30 64 0 26 78 252 104 302 9 17 16 44 16 60 0 17 7 58 16 90 35 130 52 213 59
280 4 39 11 77 15 86 19 35 24 144 24 529 1 448 -5 519 -60 785 -8 39 -16 79
-17 90 -1 11 -5 25 -8 30 -7 10 -20 68 -40 170 -6 33 -20 77 -30 97 -11 21
-19 45 -19 55 0 21 -24 93 -44 132 -7 14 -16 45 -19 69 -3 23 -19 64 -35 90
-16 26 -33 60 -36 75 -11 47 -175 386 -201 417 -7 8 -21 31 -30 50 -10 19 -21
37 -24 40 -3 3 -15 22 -26 43 -11 20 -22 37 -26 37 -3 0 -14 18 -25 40 -10 22
-22 40 -25 40 -4 0 -10 11 -13 25 -4 14 -11 25 -16 25 -5 0 -17 15 -26 33 -9
17 -23 36 -30 40 -8 4 -14 14 -14 22 0 7 -11 22 -25 33 -14 11 -25 25 -25 31
0 6 -11 21 -25 33 -14 12 -25 26 -25 32 -1 6 -21 31 -45 55 -24 25 -49 57 -55
72 -7 15 -20 29 -31 32 -10 3 -22 13 -26 24 -4 10 -25 36 -47 58 -23 22 -67
68 -99 103 -32 34 -62 62 -67 62 -5 0 -15 8 -22 18 -7 9 -30 30 -51 45 -21 16
-63 53 -94 83 -31 30 -73 64 -94 74 -21 11 -44 28 -51 37 -18 24 -90 80 -122
94 -14 7 -26 18 -26 25 0 6 -10 14 -22 18 -13 3 -36 16 -51 30 -15 13 -52 36
-82 52 -30 15 -62 34 -72 43 -10 10 -25 20 -33 24 -8 4 -37 21 -65 37 -27 17
-74 41 -102 54 -29 14 -53 30 -53 35 0 6 -6 11 -14 11 -14 0 -116 41 -150 61
-29 17 -156 69 -196 81 -19 5 -60 21 -90 35 -62 29 -142 54 -280 88 -52 14
-116 31 -141 40 -26 8 -55 15 -66 15 -10 0 -23 4 -29 10 -5 5 -45 14 -89 20
-44 5 -114 17 -155 25 -41 8 -160 20 -265 25 -189 9 -598 13 -606 6z m632
-396 c30 -5 104 -14 164 -20 61 -6 137 -17 170 -25 33 -8 92 -21 130 -29 64
-13 147 -38 185 -56 9 -4 36 -11 60 -15 25 -4 50 -11 55 -15 6 -4 23 -10 38
-14 15 -4 61 -22 102 -41 41 -19 78 -35 83 -35 17 0 157 -65 207 -96 28 -17
65 -36 84 -42 39 -14 286 -162 348 -209 24 -18 48 -33 53 -33 6 0 10 -6 10
-14 0 -8 12 -17 26 -20 25 -7 91 -53 124 -86 8 -9 31 -27 50 -40 51 -35 167
-133 225 -190 28 -28 56 -50 63 -50 7 0 12 -4 12 -9 0 -4 32 -41 70 -80 39
-40 70 -76 70 -82 0 -5 7 -9 15 -9 8 0 15 -4 15 -9 0 -5 15 -25 33 -43 35 -37
60 -67 142 -174 30 -39 55 -74 55 -79 0 -4 14 -24 30 -44 48 -56 50 -60 50
-69 0 -5 12 -25 28 -44 15 -19 43 -66 62 -104 19 -38 38 -70 43 -72 4 -2 7
-10 7 -19 0 -8 10 -29 23 -46 30 -43 77 -136 77 -155 0 -8 13 -36 28 -61 16
-25 31 -57 35 -71 25 -105 32 -126 44 -133 7 -4 13 -16 13 -25 0 -9 15 -56 34
-103 18 -47 36 -110 40 -140 7 -55 26 -123 39 -135 4 -4 7 -18 7 -32 0 -13 9
-67 19 -120 11 -54 22 -113 24 -133 2 -20 7 -41 10 -46 13 -20 27 -295 27
-523 0 -277 -13 -521 -29 -563 -11 -28 -24 -94 -41 -202 -11 -69 -26 -126 -46
-173 -8 -18 -14 -47 -14 -65 0 -18 -9 -52 -20 -76 -11 -24 -20 -49 -20 -57 0
-7 -6 -28 -14 -46 -8 -18 -24 -58 -36 -88 -13 -30 -29 -69 -36 -87 -8 -17 -14
-36 -14 -43 0 -7 -11 -33 -24 -59 -58 -113 -76 -152 -76 -165 0 -8 -11 -28
-25 -44 -14 -17 -25 -36 -25 -43 0 -8 -9 -27 -20 -44 -12 -16 -28 -46 -36 -65
-8 -19 -18 -37 -22 -40 -11 -8 -62 -85 -62 -94 0 -5 -10 -21 -22 -36 -53 -65
-73 -94 -80 -112 -7 -18 -25 -42 -108 -142 -19 -24 -48 -60 -65 -82 -36 -46
-138 -156 -195 -209 -20 -19 -134 -132 -148 -148 -4 -4 -41 -35 -82 -68 -41
-34 -92 -77 -113 -95 -21 -19 -42 -34 -46 -34 -4 0 -16 -8 -27 -18 -11 -10
-33 -27 -49 -38 -17 -10 -53 -35 -81 -56 -28 -21 -55 -38 -61 -38 -6 0 -16 -7
-24 -16 -7 -9 -49 -34 -93 -56 -45 -22 -83 -44 -86 -49 -4 -5 -62 -36 -130
-70 -69 -34 -127 -65 -130 -69 -3 -3 -39 -17 -80 -30 -41 -13 -77 -26 -80 -30
-9 -11 -174 -72 -255 -95 -44 -12 -96 -28 -115 -37 -19 -8 -64 -19 -99 -22
-36 -4 -76 -13 -90 -21 -24 -12 -91 -23 -286 -46 -44 -5 -93 -15 -110 -22 -42
-17 -693 -17 -750 0 -22 7 -112 22 -200 33 -162 21 -266 49 -288 79 -7 9 -21
21 -32 27 -33 19 -24 64 24 113 39 40 53 71 31 71 -5 0 -10 7 -10 15 0 17 38
35 72 35 12 0 41 17 66 37 24 20 67 53 95 74 27 21 79 65 114 99 35 34 68 58
73 55 16 -10 11 -25 -8 -25 -22 0 -42 -19 -42 -40 0 -9 -13 -23 -29 -33 -16
-9 -41 -32 -55 -50 -14 -17 -32 -39 -40 -47 -7 -8 -18 -30 -24 -47 l-11 -33
28 15 c15 7 62 47 104 87 41 40 155 150 253 243 98 94 185 178 193 188 9 10
30 31 46 47 17 17 33 33 37 37 47 54 146 143 160 143 4 0 8 9 8 21 0 16 -4 20
-17 14 -45 -17 -73 -18 -73 -2 0 25 107 128 125 121 21 -8 19 -17 -11 -61
l-26 -38 22 -3 c14 -2 28 4 38 19 18 26 55 62 153 149 40 36 116 109 168 164
114 117 228 226 236 226 2 0 30 28 62 61 32 34 82 85 111 114 28 29 52 57 52
64 0 6 4 11 9 11 7 0 275 264 332 327 8 10 40 38 70 63 80 67 169 161 169 178
0 7 4 12 8 12 5 0 22 11 38 25 16 14 32 25 36 25 3 0 11 14 17 30 5 17 17 30
25 30 9 0 16 4 16 9 0 6 14 18 30 28 17 9 30 23 30 30 0 7 4 13 8 13 5 0 15
11 22 25 7 14 19 25 25 25 14 0 58 46 74 78 6 12 18 22 26 22 8 0 22 12 32 27
10 14 40 47 67 72 27 25 76 75 110 110 34 34 69 70 78 80 131 126 220 217 233
237 8 13 20 24 26 24 13 0 24 11 69 70 19 25 38 46 42 48 4 2 13 22 19 45 13
51 26 67 50 67 41 0 71 25 95 78 13 30 24 63 24 73 0 21 -38 89 -50 89 -11 0
-174 112 -178 122 -2 4 -10 8 -17 8 -7 0 -15 4 -17 8 -1 4 -28 23 -58 41 -30
19 -57 37 -60 41 -3 4 -25 18 -49 31 -58 32 -74 42 -91 57 -30 25 -86 62 -117
77 -18 8 -33 19 -33 25 0 5 -16 16 -35 25 -19 9 -39 23 -46 31 -6 8 -17 14
-23 14 -7 0 -23 11 -36 25 -13 14 -29 25 -35 25 -6 0 -21 10 -33 23 -11 12
-38 31 -59 42 -21 11 -52 31 -69 45 -61 49 -79 61 -109 76 -16 8 -46 27 -65
44 -19 16 -41 30 -47 30 -7 0 -13 6 -13 14 0 8 -12 18 -27 24 -16 5 -49 25
-74 45 -26 19 -57 41 -70 48 -13 6 -29 17 -35 23 -7 6 -24 20 -40 31 -15 11
-43 32 -62 48 -19 15 -40 27 -47 27 -16 0 -75 66 -75 84 0 8 32 42 72 77 39
35 92 83 117 107 25 24 58 53 74 65 15 12 61 55 103 95 41 39 79 72 83 72 4 0
24 17 44 38 20 20 58 56 84 79 98 85 158 139 212 191 30 28 58 52 61 52 4 0
22 21 41 46 19 25 51 55 71 65 46 24 55 40 56 107 1 43 -4 57 -24 77 -15 15
-24 36 -24 54 0 35 -24 46 -76 37 -31 -6 -34 -4 -48 29 -20 47 -55 47 -107 0
-22 -19 -46 -35 -54 -35 -8 0 -15 -8 -15 -18 0 -12 -13 -23 -36 -31 -34 -12
-60 -7 -38 7 6 4 19 22 29 41 15 30 15 35 2 48 -20 20 -63 20 -86 -1 -9 -9
-24 -16 -32 -16 -14 0 -29 -12 -162 -133 -116 -105 -136 -123 -188 -167 -28
-25 -72 -64 -97 -87 -24 -24 -46 -43 -48 -43 -5 0 -44 -32 -58 -48 -13 -15
-68 -68 -133 -128 -24 -23 -59 -50 -78 -60 -18 -10 -36 -26 -38 -36 -3 -10
-17 -22 -31 -28 -14 -5 -26 -16 -26 -25 0 -8 -12 -22 -27 -32 -16 -10 -38 -28
-50 -40 -29 -31 -85 -31 -123 0 -16 12 -45 33 -65 47 -20 14 -61 44 -91 68
-29 23 -61 42 -69 42 -8 0 -15 4 -15 9 0 5 -15 18 -32 29 -18 12 -60 41 -93
66 -33 25 -67 49 -75 53 -8 4 -24 16 -35 26 -11 10 -51 41 -90 67 -38 26 -80
57 -92 69 -12 12 -27 21 -32 21 -6 0 -26 14 -44 30 -19 17 -38 30 -42 30 -3 0
-28 18 -54 40 -26 22 -52 40 -58 40 -5 0 -30 17 -54 38 -24 20 -66 53 -94 72
-27 19 -51 38 -53 42 -2 4 -10 8 -18 8 -8 0 -14 3 -14 8 0 4 -14 13 -31 21
-17 7 -44 25 -59 40 -50 46 -81 71 -90 71 -5 0 -48 29 -95 65 -48 36 -91 65
-96 65 -5 0 -26 16 -46 36 -21 19 -51 43 -68 51 -16 9 -50 31 -74 51 -23 19
-76 57 -117 83 -41 27 -74 53 -74 59 0 5 -5 10 -11 10 -14 0 -131 87 -142 106
-6 10 0 17 20 25 15 6 62 26 103 45 41 18 94 36 118 40 23 3 42 9 42 13 0 10
55 28 110 36 25 4 57 14 72 21 15 8 39 14 53 14 14 0 33 4 43 10 26 14 139 40
178 40 19 0 50 7 70 15 19 8 90 20 157 26 67 7 149 15 182 19 94 11 585 11
646 0z m-2122 -478 c6 -11 12 -335 15 -812 3 -437 10 -930 15 -1095 9 -257 26
-1304 26 -1522 l0 -73 -112 -107 c-61 -60 -135 -128 -164 -153 -29 -25 -65
-56 -79 -70 -30 -31 -128 -120 -190 -173 -25 -22 -86 -78 -136 -125 -124 -118
-149 -139 -190 -161 -35 -19 -94 -85 -94 -105 0 -6 11 -28 25 -48 30 -44 30
-45 9 -109 -19 -59 -11 -85 37 -113 16 -9 32 -28 35 -42 11 -42 58 -67 115
-62 27 3 57 12 67 20 9 8 37 26 62 39 25 13 54 32 64 42 11 9 25 17 31 17 6 0
33 15 61 32 59 39 117 72 162 93 17 8 32 19 32 23 0 4 30 23 68 42 37 19 69
38 70 42 2 5 10 8 19 8 8 0 26 9 40 20 59 46 81 12 82 -130 1 -58 5 -249 9
-425 7 -317 3 -441 -15 -454 -11 -7 -33 -80 -33 -109 0 -12 19 -41 43 -65 35
-36 51 -45 91 -50 45 -6 57 -3 134 35 46 24 97 54 111 68 15 14 97 91 182 171
85 80 206 193 269 250 63 57 117 109 119 114 2 6 24 28 49 50 25 22 202 197
394 388 298 298 348 352 348 377 0 34 26 54 81 64 29 5 56 26 132 104 80 81
217 214 387 377 19 18 42 41 51 52 9 10 38 36 64 58 51 43 88 77 256 238 106
103 204 196 429 407 67 63 145 138 173 166 92 91 144 112 185 74 12 -11 25
-20 30 -20 11 0 152 -134 152 -145 0 -9 72 -74 83 -75 4 0 19 -11 33 -25 14
-14 28 -25 33 -25 4 0 16 -17 28 -37 26 -48 14 -96 -27 -113 -15 -6 -33 -21
-39 -33 -7 -12 -30 -35 -51 -52 -22 -16 -39 -36 -40 -42 0 -7 -4 -13 -8 -13
-5 0 -37 -27 -72 -60 -35 -33 -67 -60 -72 -60 -4 0 -8 -7 -8 -15 0 -9 -6 -18
-14 -21 -8 -3 -41 -31 -73 -62 -62 -60 -238 -224 -313 -291 -25 -22 -48 -41
-52 -41 -4 0 -22 -16 -40 -36 -67 -74 -211 -214 -219 -214 -5 0 -9 -4 -9 -8 0
-14 -457 -462 -471 -462 -5 0 -15 -11 -21 -25 -6 -14 -16 -25 -22 -25 -6 0
-94 -83 -196 -184 -102 -102 -258 -258 -347 -346 -90 -89 -163 -163 -163 -164
0 -2 -201 -202 -233 -232 -7 -6 -55 -57 -107 -114 -52 -56 -209 -215 -349
-353 -140 -139 -267 -264 -282 -279 -15 -16 -30 -28 -34 -28 -4 0 -16 -10 -27
-22 -51 -60 -148 -154 -170 -167 -30 -15 -110 -8 -149 14 -62 36 -144 75 -156
75 -7 0 -13 4 -13 8 0 5 -17 16 -37 25 -48 20 -143 73 -156 86 -6 6 -17 11
-25 11 -8 0 -31 13 -51 29 -20 16 -53 37 -74 47 -20 10 -37 21 -37 26 0 4 -7
8 -16 8 -9 0 -25 11 -36 25 -11 14 -24 25 -29 25 -6 0 -38 23 -72 51 -34 28
-70 57 -80 65 -9 8 -21 14 -26 14 -5 0 -19 12 -31 28 -12 15 -27 29 -35 32
-17 7 -106 84 -176 152 -32 32 -63 58 -68 58 -6 0 -17 13 -26 29 -8 17 -24 36
-35 44 -10 7 -33 31 -50 53 -17 21 -56 68 -88 102 -31 35 -69 81 -83 102 -14
21 -33 46 -42 55 -10 9 -17 23 -17 31 0 8 -4 14 -9 14 -5 0 -13 10 -17 23 -4
12 -9 24 -13 27 -18 14 -69 89 -80 118 -8 17 -18 32 -23 32 -5 0 -17 19 -27
43 -10 23 -27 51 -38 62 -10 11 -25 40 -33 65 -7 25 -19 52 -26 60 -19 23 -68
128 -98 206 -14 39 -35 88 -46 110 -11 21 -20 44 -20 52 0 7 -9 32 -20 55 -12
23 -24 62 -27 87 -3 25 -16 68 -28 95 -23 50 -47 142 -60 225 -4 25 -11 52
-16 62 -5 9 -13 60 -19 115 -6 54 -15 107 -20 118 -5 11 -11 34 -14 50 -3 17
-10 56 -16 88 -34 187 -27 808 11 972 11 50 27 124 35 165 24 130 71 315 89
350 7 14 18 43 25 65 21 66 100 259 111 269 5 6 9 15 9 22 0 19 88 199 110
224 11 13 20 31 20 41 0 10 6 24 12 31 7 7 29 43 48 80 19 37 38 68 41 68 4 0
14 17 23 38 9 20 41 71 71 112 30 41 71 99 92 128 21 30 43 57 48 60 12 8 75
89 75 96 0 24 448 466 472 466 5 0 8 4 8 9 0 5 8 12 18 15 9 3 34 22 54 41 20
19 41 35 46 35 5 0 17 9 27 20 10 11 22 20 27 20 6 0 22 9 36 20 104 80 130
98 148 104 10 3 30 16 44 29 22 20 91 55 112 56 4 1 12 -7 17 -17z m598 -403
c15 -5 30 -13 33 -17 12 -16 109 -92 118 -92 5 0 17 -9 27 -20 10 -11 23 -20
29 -20 6 0 29 -16 51 -36 22 -20 65 -52 95 -72 30 -20 62 -43 70 -52 8 -9 38
-32 65 -51 28 -18 56 -42 63 -51 7 -10 18 -18 24 -18 6 0 25 -12 43 -27 18
-16 59 -46 90 -68 32 -22 68 -49 80 -60 43 -37 112 -85 122 -85 5 0 19 -13 31
-30 13 -16 29 -30 36 -30 8 0 16 -4 18 -8 2 -5 30 -27 63 -49 33 -23 73 -53
89 -67 16 -14 33 -26 38 -26 4 0 29 -20 55 -45 25 -25 50 -45 56 -45 5 0 24
-12 42 -27 18 -16 58 -46 89 -68 82 -58 86 -63 86 -104 0 -34 -7 -44 -77 -107
-74 -67 -138 -126 -253 -236 -30 -29 -93 -87 -139 -128 -47 -41 -118 -106
-158 -145 -40 -38 -87 -83 -105 -99 -140 -122 -288 -264 -288 -276 0 -5 -9
-12 -21 -15 -21 -7 -86 -65 -210 -187 -38 -38 -73 -68 -77 -68 -5 0 -27 -19
-50 -42 -40 -42 -154 -152 -223 -215 -19 -17 -47 -35 -61 -38 -24 -6 -28 -3
-34 21 -4 15 -2 199 5 408 6 210 13 550 16 756 3 206 7 431 10 500 12 315 25
690 30 849 3 96 6 175 8 177 2 2 68 22 79 23 4 1 19 -4 35 -10z m2857 -203
c-8 -14 -29 -28 -45 -31 -16 -4 -29 -13 -29 -21 0 -8 -7 -14 -15 -14 -23 0
-18 14 18 47 53 48 99 60 71 19z m-3294 -2040 c6 -477 6 -736 -1 -748 -26 -49
-82 2 -66 62 4 19 12 359 16 755 5 396 9 722 10 725 1 3 9 -11 17 -30 14 -30
17 -138 24 -764z m2492 695 c24 -11 60 -36 82 -55 21 -20 42 -36 46 -36 4 0
26 -17 48 -37 23 -21 53 -46 67 -56 14 -10 25 -25 25 -34 0 -22 -29 -53 -49
-53 -9 0 -43 -18 -76 -40 -33 -22 -70 -40 -81 -40 -12 0 -33 -9 -47 -20 -14
-11 -32 -20 -40 -20 -8 0 -21 -7 -28 -17 -8 -9 -46 -31 -86 -50 -40 -19 -75
-38 -78 -44 -4 -5 -23 -18 -43 -29 -97 -53 -127 -71 -132 -79 -5 -10 -67 -45
-135 -79 -22 -11 -53 -32 -69 -46 -16 -14 -37 -26 -46 -26 -10 0 -34 -13 -55
-30 -21 -16 -43 -30 -50 -30 -6 0 -29 -13 -51 -30 -21 -16 -44 -30 -50 -30 -6
0 -28 -13 -50 -30 -21 -16 -45 -30 -51 -30 -7 0 -13 -4 -13 -9 0 -5 -12 -14
-27 -20 -50 -20 -128 -66 -151 -89 -12 -12 -28 -22 -36 -22 -7 0 -19 -6 -25
-14 -7 -8 -25 -17 -39 -21 -15 -3 -42 -19 -59 -35 -18 -17 -39 -30 -47 -30 -8
0 -16 -4 -18 -8 -3 -9 -91 -55 -135 -73 -21 -8 -23 -6 -23 21 0 23 7 33 32 46
18 9 37 22 44 28 102 97 144 134 168 151 16 11 35 27 42 35 49 55 78 81 115
100 13 7 50 39 82 71 32 32 74 71 95 86 20 16 43 35 52 43 9 8 29 24 44 35 16
11 36 28 45 39 9 10 45 43 81 73 36 31 96 84 133 119 38 35 72 64 77 64 5 0
17 11 28 25 11 14 22 25 25 25 4 0 32 25 64 55 32 30 61 55 65 55 4 0 27 20
50 46 24 25 68 64 98 87 30 23 57 45 60 48 10 12 46 28 62 29 9 0 36 -9 60
-19z m-222 -1013 c0 -15 -27 -62 -47 -79 -10 -9 -103 -106 -208 -214 -104
-109 -268 -275 -364 -369 -96 -94 -450 -447 -788 -783 -351 -351 -621 -613
-631 -613 -27 0 -42 20 -42 54 0 17 -7 45 -16 61 -14 25 -16 62 -16 215 1 102
1 188 1 192 1 3 17 16 37 27 l37 22 -5 124 c-6 144 9 197 56 209 14 3 26 11
26 16 0 6 6 10 13 10 6 0 25 11 41 25 16 14 34 25 41 25 7 0 20 9 30 20 10 11
23 20 29 20 6 0 36 16 66 36 30 20 73 45 95 56 22 11 49 28 60 38 11 10 49 33
85 52 36 18 85 48 109 66 24 17 48 32 54 32 5 0 38 18 73 40 35 22 68 40 74
40 5 0 10 4 10 9 0 5 41 31 90 57 50 26 90 50 90 54 0 4 32 22 70 41 39 18 70
37 70 41 0 5 7 8 15 8 8 0 29 12 47 28 18 15 65 43 103 62 39 19 77 43 86 53
9 9 41 30 70 45 78 42 168 94 248 145 24 15 69 41 100 57 31 16 80 44 110 63
51 32 81 38 81 15z m1563 -151 c6 -16 -40 -63 -76 -76 -15 -6 -27 -17 -27 -24
0 -21 -60 -61 -72 -49 -8 8 -2 18 18 35 16 14 53 48 83 76 57 54 66 59 74 38z
m-199 -189 c-14 -23 -27 -36 -230 -240 -111 -110 -209 -205 -218 -210 -9 -5
-16 -13 -16 -17 0 -11 -70 -82 -155 -158 -39 -34 -166 -157 -283 -272 -117
-116 -215 -211 -216 -211 -2 0 -85 -81 -184 -180 -100 -99 -186 -180 -192
-180 -5 0 -10 -4 -10 -10 0 -5 -23 -31 -52 -57 -28 -27 -82 -77 -119 -113 -38
-36 -76 -72 -85 -80 -24 -22 -131 -130 -274 -277 -54 -57 -104 -103 -110 -103
-6 0 -14 -8 -17 -17 -8 -21 -53 -73 -64 -73 -4 0 -47 -41 -96 -92 -48 -50
-127 -131 -175 -180 -49 -49 -88 -93 -88 -96 0 -4 -16 -16 -35 -26 -19 -11
-35 -25 -35 -31 0 -12 -41 -55 -192 -198 -97 -92 -137 -127 -145 -127 -3 0
-14 -11 -24 -24 -11 -14 -35 -31 -54 -37 -19 -7 -35 -19 -35 -27 0 -12 -3 -12
-15 -2 -13 11 -10 18 21 54 77 88 90 103 115 136 41 54 59 72 126 127 34 29
77 69 95 90 18 21 39 42 47 47 12 7 187 173 301 286 25 25 67 62 93 84 26 21
47 44 47 51 0 6 10 17 23 24 12 7 38 35 57 63 19 27 53 63 76 78 22 16 82 69
133 119 51 50 97 91 101 91 5 0 12 9 15 20 3 11 13 20 21 20 8 0 14 4 14 8 0
7 51 69 77 94 126 122 253 251 253 257 0 5 10 11 23 15 12 3 60 47 107 97 119
127 729 739 764 767 16 12 70 61 120 110 50 48 102 94 116 103 14 9 54 45 90
80 36 35 83 77 105 94 21 16 56 46 76 66 20 20 46 40 58 44 12 3 21 11 21 16
0 5 7 9 16 9 9 0 12 -5 8 -12z m-134 -505 c0 -5 -5 -15 -10 -23 -7 -12 -12
-12 -22 -2 -10 10 -10 15 2 22 18 12 30 13 30 3z m-55 -72 c-3 -12 -13 -21
-21 -21 -8 0 -14 -9 -14 -20 0 -16 -7 -20 -30 -20 -26 0 -29 3 -21 18 5 9 19
24 30 32 12 8 21 20 21 26 0 15 22 24 33 14 5 -5 6 -17 2 -29z m-195 -176 c0
-3 -11 -18 -25 -33 -14 -15 -25 -30 -25 -34 0 -15 -41 -49 -50 -43 -17 11 -11
22 36 69 41 41 64 56 64 41z m-3247 -372 c11 -164 8 -821 -3 -828 -6 -4 -19
-4 -29 0 -19 6 -19 20 -15 443 3 240 7 447 10 460 2 12 10 22 18 22 10 0 15
-26 19 -97z m1947 -901 c0 -14 -51 -62 -65 -62 -26 0 -16 30 18 50 34 21 47
25 47 12z"/>
</g>
  </svg>
</svg>